<?xml version="1.0" encoding="utf-8"?>
<!-- Generator: Adobe Illustrator 26.0.3, SVG Export Plug-In . SVG Version: 6.00 Build 0)  -->
<svg version="1.1" id="Calque_1" xmlns="http://www.w3.org/2000/svg" xmlns:xlink="http://www.w3.org/1999/xlink" x="0px" y="0px"
	 viewBox="0 0 59.4 59.4" style="enable-background:new 0 0 59.4 59.4;" xml:space="preserve">
<style type="text/css">
	.st0{fill:#0E74FF;}
</style>
<g>
	<g>
		<path class="st0" d="M58.8,29.7c0-3.8-0.8-7.5-2.2-11.1l0,0c-2.9-7.1-8.8-13-16.1-15.9C37,1.4,33.4,0.6,29.7,0.6
			c-3.1,0-6.3,0.5-9.2,1.5C8.7,6.1,0.6,17.2,0.6,29.7c0,16.1,13,29.1,29.1,29.1c12.6,0,23.7-8,27.7-20.1l0,0
			C58.3,35.8,58.8,32.7,58.8,29.7z M41.4,6c5.1,2.5,9.2,6.7,11.7,11.6H41.4V6z M40.7,20.4h13.8c1.1,2.9,1.7,6.1,1.7,9.2
			c0,2.4-0.4,4.9-1,7.2h-31l8.2-8.2L40.7,20.4z M38.7,4.8v13.6L22.2,35V4.3C27.6,2.8,33.4,3,38.7,4.8z M29.7,56
			C15.1,56,3.3,44.2,3.3,29.6c0-10.7,6.5-20.3,16.3-24.4v33c0,0.2,0,0.4,0.1,0.5l0,0l0,0c0.1,0.3,0.4,0.6,0.7,0.7l0,0l0,0
			c0.2,0.1,0.3,0.1,0.5,0.1h33.3C50.1,49.6,40.5,56,29.7,56z"/>
	</g>
</g>
</svg>
