<svg viewBox="0.359 0.004 59.4 59.4" width="21" height="21" xmlns="http://www.w3.org/2000/svg"><g transform="matrix(1, 0, 0, 1, -45.040573, -10.395525)"><g><path d="M104.8,40.1c0-3.9-0.8-7.7-2.2-11.3c0,0,0,0,0,0c-3-7.3-9-13.3-16.4-16.2c-3.6-1.4-7.3-2.2-11.1-2.2 c-3.2,0-6.4,0.5-9.4,1.5c-12.1,4.1-20.3,15.4-20.3,28.2c0,16.4,13.3,29.7,29.7,29.7c12.9,0,24.2-8.2,28.3-20.5c0,0,0,0,0,0 C104.3,46.3,104.8,43.2,104.8,40.1z M87.1,15.9c5.2,2.6,9.4,6.8,12,11.9h-12V15.9z M86.3,30.6h14.1c1.1,3,1.7,6.2,1.7,9.4 c0,2.5-0.4,5-1,7.4H69.4l8.4-8.4L86.3,30.6z M84.3,14.7v13.9L67.4,45.5V14.2C73,12.6,78.9,12.8,84.3,14.7z M75.1,67 c-14.9,0-27-12.1-27-27c0-10.9,6.6-20.7,16.6-24.9v33.7c0,0.2,0,0.4,0.1,0.5c0,0,0,0,0,0c0,0,0,0,0,0c0.1,0.3,0.4,0.6,0.7,0.7 c0,0,0,0,0,0c0,0,0,0,0,0c0.2,0.1,0.3,0.1,0.5,0.1h34C95.9,60.4,86.1,67,75.1,67z" style="fill: #030405;"></path></g></g></svg>
