<?xml version="1.0" encoding="utf-8"?>
<!-- Generator: Adobe Illustrator 26.0.3, SVG Export Plug-In . SVG Version: 6.00 Build 0)  -->
<svg version="1.1" id="Calque_1" xmlns="http://www.w3.org/2000/svg" xmlns:xlink="http://www.w3.org/1999/xlink" x="0px" y="0px"
	 viewBox="0 0 104 32" style="enable-background:new 0 0 104 32;" xml:space="preserve">
<style type="text/css">
	.st0{fill:#0E74FF;}
	.st1{fill:#EB3448;}
</style>
<g>
	<g>
		<polygon class="st0" points="38.9,8.7 36.9,8.7 36.9,17.3 43.3,17.3 43.3,15.7 38.9,15.7 		"/>
		<rect x="44.4" y="8.7" class="st0" width="2" height="8.6"/>
		<path class="st0" d="M62.1,8.6c-2.7,0-4.7,1.9-4.7,4.4s2,4.4,4.7,4.4c2.7,0,4.7-1.9,4.7-4.4C66.8,10.4,64.7,8.6,62.1,8.6z
			 M62.1,15.8c-1.5,0-2.7-1.1-2.7-2.8s1.2-2.8,2.7-2.8s2.7,1.1,2.7,2.8S63.6,15.8,62.1,15.8z"/>
		<polygon class="st0" points="70.2,8.7 68.2,8.7 68.2,17.3 74.6,17.3 74.6,15.7 70.2,15.7 		"/>
		<path class="st0" d="M91.1,13.9l-4.3-5.2h-1.6v4.6c-0.6,0-1.6,0-2.7,0l-2-4.6h-2l-3.8,8.6h2l0.8-1.8l0,0l0.7-1.6l1.3-3.2l1.1,2.7
			c-0.6,0-1.1,0-1.1,0l-0.6,1.6h2.4l0.3,0.6l0.8,1.8h2.1l-1.1-2.4h2v2.4h2v-5.2l4.3,5.2h1.6V8.7h-2v5.2H91.1z"/>
		<path class="st0" d="M53,10.2h3h0.8c0.4-0.7,0.9-1.2,1.5-1.7h-5.5h-0.1h-0.1h-0.1l0,0c-2.7,0.1-4.6,1.9-4.6,4.4
			c0,2.6,2,4.4,4.7,4.4c1.2,0,2.5-0.4,3.5-1.1v-3.5h-1.8v2.5c-0.5,0.3-1,0.4-1.6,0.4c-1.6,0-2.8-1.2-2.8-2.8c0-1.6,1-2.6,2.6-2.7
			l0,0L53,10.2L53,10.2z"/>
		<path class="st0" d="M100.9,12.9v2.5c-0.5,0.3-1,0.4-1.6,0.4c-1.6,0-2.8-1.2-2.8-2.8c0-1.6,1-2.6,2.6-2.7l0,0h0.5h1.4
			c0.4-0.7,0.9-1.3,1.5-1.7h-3.1h-0.1h-0.1h-0.1l0,0c-2.7,0.1-4.6,1.9-4.6,4.4c0,2.6,2,4.4,4.7,4.4c1.2,0,2.5-0.4,3.5-1.1v-3.5
			L100.9,12.9L100.9,12.9z"/>
	</g>
	<g>
		<g>
			<polygon class="st1" points="51.4,20.2 50.3,22.1 49.1,20.2 48.5,20.2 48.5,23.3 49.2,23.3 49.2,21.4 50.1,22.9 50.4,22.9 
				51.3,21.4 51.3,23.3 52,23.3 52,20.2 			"/>
		</g>
		<g>
			<path class="st1" d="M58.8,21.3c0-0.7-0.5-1.1-1.4-1.1h-1.4v1.7h-0.9l-0.7-1.7h-0.7l-1.4,3.1h0.7l0.3-0.7l0.2-0.5l0.5-1.2
				l0.4,0.9H54l-0.2,0.6h0.8l0.1,0.2l0.3,0.7h0.7l-0.4-0.9h0.7v0.9h0.7v-0.8h0.6h0.1l0.6,0.8h0.8l-0.7-1
				C58.6,22.1,58.8,21.7,58.8,21.3z M57.4,21.8h-0.6v-1.1h0.6c0.4,0,0.7,0.2,0.7,0.5C58.1,21.6,57.8,21.8,57.4,21.8z"/>
		</g>
		<g>
			<rect x="59.3" y="20.2" class="st1" width="0.7" height="3.1"/>
		</g>
		<g>
			<path class="st1" d="M62.3,20.7c0.3,0,0.6,0.1,0.8,0.4l0.5-0.4c-0.3-0.4-0.7-0.5-1.3-0.5c-1,0-1.7,0.7-1.7,1.6
				c0,0.9,0.7,1.6,1.7,1.6c0.4,0,0.9-0.2,1.3-0.4v-1.3h-0.6v0.9c-0.2,0.1-0.4,0.2-0.6,0.2c-0.6,0-1-0.4-1-1
				C61.3,21.1,61.7,20.7,62.3,20.7z"/>
		</g>
		<g>
			<path class="st1" d="M65.7,20.1c-1,0-1.7,0.7-1.7,1.6c0,0.9,0.7,1.6,1.7,1.6c1,0,1.7-0.7,1.7-1.6C67.4,20.8,66.7,20.1,65.7,20.1z
				 M65.7,22.7c-0.6,0-0.9-0.4-0.9-1c0-0.6,0.4-1,0.9-1c0.6,0,0.9,0.4,0.9,1C66.7,22.3,66.2,22.7,65.7,22.7z"/>
		</g>
		<g>
			<polygon class="st1" points="68.7,20.2 67.9,20.2 67.9,23.3 70.2,23.3 70.2,22.7 68.7,22.7 			"/>
		</g>
		<g>
			<path class="st1" d="M72,20.2h-1.4v3.1H72c1,0,1.7-0.6,1.7-1.6C73.7,20.7,73,20.2,72,20.2z M72,22.7h-0.6v-1.9H72
				c0.6,0,1,0.4,1,0.9C73,22.3,72.6,22.7,72,22.7z"/>
		</g>
		<g>
			<g>
				<path class="st0" d="M45.9,22.6h-1.4l-0.3,0.7h-0.7l1.4-3.1h0.7l1.4,3.1h-0.7L45.9,22.6z M45.7,22.1l-0.5-1.2l-0.5,1.2H45.7z"/>
			</g>
		</g>
		<g>
			<g>
				<path class="st0" d="M78,21.3c0,0.7-0.5,1.1-1.3,1.1h-0.6v0.8h-0.7v-3.1h1.3C77.6,20.2,78,20.6,78,21.3z M77.3,21.3
					c0-0.3-0.2-0.5-0.6-0.5h-0.6v1h0.6C77.1,21.8,77.3,21.6,77.3,21.3z"/>
			</g>
			<g>
				<path class="st0" d="M80.5,23.2l-0.6-0.8h-0.1h-0.6v0.8h-0.7v-3.1h1.3c0.8,0,1.3,0.4,1.3,1.1c0,0.5-0.2,0.8-0.6,0.9l0.7,1
					L80.5,23.2L80.5,23.2z M79.9,20.7h-0.6v1h0.6c0.4,0,0.6-0.2,0.6-0.5C80.5,21,80.3,20.7,79.9,20.7z"/>
			</g>
			<g>
				<path class="st0" d="M81.6,21.7c0-0.9,0.7-1.6,1.7-1.6s1.7,0.7,1.7,1.6c0,0.9-0.7,1.6-1.7,1.6C82.3,23.3,81.6,22.6,81.6,21.7z
					 M84.2,21.7c0-0.6-0.4-1-0.9-1s-0.9,0.4-0.9,1c0,0.6,0.4,1,0.9,1S84.2,22.3,84.2,21.7z"/>
			</g>
			<g>
				<path class="st0" d="M84.9,22.8l0.4-0.5c0.2,0.2,0.4,0.3,0.6,0.3c0.3,0,0.4-0.2,0.4-0.5v-1.5h-1.1v-0.6H87v2
					c0,0.7-0.4,1.2-1.1,1.2C85.6,23.3,85.2,23.1,84.9,22.8z"/>
			</g>
			<g>
				<path class="st0" d="M90.1,22.7v0.6h-2.4v-3.1h2.3v0.6h-1.6v0.7h1.4V22h-1.4v0.7L90.1,22.7L90.1,22.7z"/>
			</g>
			<g>
				<path class="st0" d="M90.5,21.7c0-0.9,0.7-1.6,1.7-1.6c0.5,0,1,0.2,1.3,0.5l-0.5,0.4c-0.2-0.3-0.5-0.4-0.8-0.4c-0.6,0-1,0.4-1,1
					c0,0.6,0.4,1,1,1c0.3,0,0.6-0.1,0.8-0.4l0.5,0.4c-0.3,0.4-0.7,0.5-1.3,0.5C91.2,23.3,90.5,22.6,90.5,21.7z"/>
			</g>
			<g>
				<path class="st0" d="M94.5,20.7h-1v-0.6h2.7v0.6h-1v2.5h-0.7L94.5,20.7L94.5,20.7z"/>
			</g>
		</g>
	</g>
</g>
<g>
	<g>
		<path class="st0" d="M31.9,15.9c0-2-0.4-4-1.2-5.9l0,0c-1.6-3.8-4.7-7-8.6-8.5c-1.9-0.7-3.8-1.2-5.8-1.2c-1.7,0-3.3,0.3-4.9,0.8
			C5.1,3.3,0.8,9.2,0.8,15.9c0,8.6,7,15.5,15.5,15.5c6.8,0,12.7-4.3,14.8-10.7l0,0C31.6,19.2,31.9,17.6,31.9,15.9z M22.6,3.3
			c2.7,1.4,4.9,3.6,6.3,6.2h-6.3V3.3z M22.2,11h7.4c0.6,1.6,0.9,3.2,0.9,4.9c0,1.3-0.2,2.6-0.5,3.9H13.3l4.4-4.4L22.2,11z M21.1,2.6
			v7.3l-8.8,8.8V2.4C15.2,1.5,18.3,1.6,21.1,2.6z M16.3,30C8.5,30,2.2,23.7,2.2,15.9c0-5.7,3.5-10.8,8.7-13v17.6
			c0,0.1,0,0.2,0.1,0.3l0,0l0,0c0.1,0.2,0.2,0.3,0.4,0.4l0,0l0,0c0.1,0.1,0.2,0.1,0.3,0.1h17.8C27.2,26.6,22.1,30,16.3,30z"/>
	</g>
</g>
</svg>
