<svg viewBox="0 0 50 50" xmlns="http://www.w3.org/2000/svg">
  <defs>
    <linearGradient id="telegram-b" x1="66%" x2="85.1%" y1="43.065%" y2="83.244%">
      <stop offset="0" stop-color="rgb(149, 157, 165)"></stop>
      <stop offset="1" stop-color="rgb(149, 157, 165)"></stop>
    </linearGradient>
  </defs>
  <g fill="none" transform="translate(1 1)">
    <circle cx="23.5" cy="23.5" r="23.5" fill="url(#telegram-a)"></circle>
    <path fill="rgb(149 157 165 / 25%)" d="M 17.621 43.765 C 16.049 43.765 16.316 43.185 15.774 41.722 L 11.153 26.849 L 46.73 6.211" style=""></path>
    <path fill="rgb(149 157 165 / 25%)" d="M 17.082 43.765 C 18.43 43.765 19.025 43.233 19.778 42.602 L 26.965 36.571 L 17.999 31.906" style=""></path>
    <path fill="url(#telegram-b)" d="M 18.651 30.954 L 36.964 45.149 C 39.054 46.359 40.561 45.732 41.082 43.114 L 48.536 6.26 C 49.298 3.05 47.37 1.594 45.37 2.546 L 1.6 20.254 C -1.387 21.511 -1.369 23.26 1.056 24.039 L 12.288 27.717 L 38.292 10.505 C 39.52 9.724 40.647 10.143 39.722 11.004" style=""></path>
  </g>
</svg>
