<?xml version="1.0" standalone="no"?>
<!DOCTYPE svg PUBLIC "-//W3C//DTD SVG 20010904//EN"
 "http://www.w3.org/TR/2001/REC-SVG-20010904/DTD/svg10.dtd">
<svg version="1.0" xmlns="http://www.w3.org/2000/svg"
 width="700.000000pt" height="700.000000pt" viewBox="0 0 700.000000 700.000000"
 preserveAspectRatio="xMidYMid meet">
<metadata>
Created by potrace 1.14, written by Peter Selinger 2001-2017
</metadata>
<g transform="translate(0.000000,700.000000) scale(0.100000,-0.100000)"
fill="#000000" stroke="none">
<path d="M3509 6906 c-2 -2 -69 -6 -149 -10 -80 -3 -181 -10 -225 -16 -44 -6
-100 -13 -125 -16 -83 -9 -294 -55 -415 -90 -969 -275 -1771 -973 -2185 -1899
-12 -27 -28 -63 -36 -80 -44 -99 -151 -431 -168 -521 -7 -38 -15 -80 -26 -129
-5 -22 -12 -62 -16 -90 -3 -27 -8 -52 -9 -55 -2 -3 -6 -37 -10 -75 -4 -39 -9
-79 -11 -90 -20 -102 -19 -569 1 -697 2 -13 6 -50 10 -83 4 -32 9 -68 11 -80
2 -11 9 -49 15 -85 81 -505 342 -1083 677 -1505 157 -198 366 -408 542 -546
30 -24 57 -46 60 -49 3 -4 43 -33 90 -66 361 -254 743 -432 1147 -533 110 -27
234 -52 328 -66 22 -4 51 -8 65 -10 14 -2 57 -7 95 -10 39 -3 88 -8 110 -11
55 -7 405 -7 485 1 130 11 174 16 265 30 11 2 43 6 70 9 166 22 543 133 749
221 155 66 417 200 424 218 2 4 8 7 13 7 9 0 90 52 216 139 248 172 528 443
729 706 264 346 468 753 573 1146 56 210 100 465 117 687 4 64 5 429 0 472 -2
19 -7 65 -11 102 -3 37 -7 75 -9 85 -2 10 -7 41 -10 68 -46 333 -168 731 -310
1014 -326 650 -822 1161 -1456 1499 -214 114 -533 235 -795 301 -138 34 -141
35 -300 60 -173 28 -196 31 -345 37 -74 3 -144 7 -156 9 -12 3 -23 3 -25 1z
m316 -330 c17 -3 73 -10 125 -16 126 -15 379 -71 518 -115 l112 -36 0 -797 0
-797 -969 -969 -969 -969 0 1795 0 1795 126 31 c70 17 147 34 172 37 24 4 47
8 50 10 3 2 33 7 65 10 33 4 69 9 79 11 10 2 58 6 105 10 47 4 88 8 90 10 6 5
463 -4 496 -10z m-1493 -2175 l3 -1960 21 -28 c11 -15 38 -37 60 -48 39 -20
58 -20 2002 -19 1079 0 1962 -1 1962 -2 0 -13 -76 -178 -128 -278 -163 -312
-328 -535 -582 -786 -369 -364 -833 -629 -1338 -764 -112 -30 -160 -41 -262
-61 -42 -8 -251 -34 -325 -40 -80 -6 -380 -6 -440 0 -22 2 -69 7 -105 10 -74
7 -81 8 -210 30 -298 50 -616 158 -896 304 -96 50 -310 179 -339 204 -5 4 -43
32 -83 62 -382 281 -706 670 -922 1110 -122 249 -197 459 -249 697 -31 143
-32 151 -50 298 -19 159 -21 189 -21 375 0 182 2 222 15 330 4 33 8 74 10 90
10 119 75 387 140 580 112 333 315 698 529 954 256 304 506 520 826 711 95 57
355 189 372 190 5 0 9 -882 10 -1959z m2743 1776 c130 -75 346 -226 431 -302
332 -296 526 -530 714 -862 48 -83 55 -102 42 -105 -10 -2 -318 -3 -687 -3
l-670 1 -1 681 -1 682 51 -26 c28 -14 83 -44 121 -66z m1353 -1602 c22 -24
133 -426 146 -529 3 -21 7 -46 10 -55 3 -9 7 -41 11 -72 3 -31 7 -65 9 -75 21
-113 22 -535 1 -664 -2 -14 -9 -63 -15 -110 -6 -47 -18 -116 -25 -155 -8 -38
-16 -81 -19 -95 -10 -54 -35 -152 -40 -158 -8 -8 -3626 -8 -3626 -1 0 4 434
438 964 965 l964 959 806 0 c518 0 808 -4 814 -10z"/>
</g>
</svg>
