<svg version="1.1" id="Layer_1" xmlns="http://www.w3.org/2000/svg" xmlns:xlink="http://www.w3.org/1999/xlink" x="0px" y="0px"
	 width="100%" viewBox="0 0 750 750" enable-background="new 0 0 750 750" xml:space="preserve">
<path fill="none" opacity="0.000000" stroke="none" 
	d="
M687.000000,751.000000 
	C458.000000,751.000000 229.500000,751.000000 1.000000,751.000000 
	C1.000000,501.000000 1.000000,251.000000 1.000000,1.000000 
	C251.000000,1.000000 501.000000,1.000000 751.000000,1.000000 
	C751.000000,251.000000 751.000000,501.000000 751.000000,751.000000 
	C729.833313,751.000000 708.666687,751.000000 687.000000,751.000000 
M123.843597,416.115723 
	C132.978928,407.448578 138.444321,396.820557 140.464569,384.452484 
	C140.683441,383.112549 139.646057,381.567413 139.191376,380.117432 
	C137.930786,380.614410 136.143936,380.740143 135.490921,381.665771 
	C128.883896,391.030975 122.462189,400.526917 115.432404,410.353119 
	C113.081749,413.701355 110.605179,416.971710 108.456680,420.444946 
	C107.806618,421.495819 108.065140,423.108734 107.907486,424.464203 
	C109.399887,424.514160 111.291977,425.174225 112.313286,424.505096 
	C116.099098,422.024994 119.597855,419.106689 123.843597,416.115723 
M68.245041,391.230591 
	C61.203777,401.074921 54.173023,410.926819 47.114193,420.758545 
	C45.238716,423.370789 44.594154,426.044525 47.506443,428.161682 
	C50.221054,430.135132 52.584591,428.819794 54.300465,426.377106 
	C61.601250,415.983948 68.849907,405.554138 76.690636,394.791687 
	C79.124046,391.444519 81.293159,387.844208 84.129395,384.882874 
	C85.168869,383.797577 88.381531,383.388824 89.523300,384.196838 
	C90.692230,385.024109 90.862358,387.723053 90.843811,389.596527 
	C90.832542,390.734589 89.635628,391.860870 88.417221,393.354309 
	C81.095856,403.613953 73.716599,413.833008 66.483063,424.154205 
	C63.781643,428.008728 64.961060,432.187164 68.722534,432.073853 
	C70.611893,432.016907 72.993668,430.356110 74.204788,428.719208 
	C80.836205,419.756439 87.204643,410.597748 93.573097,401.443512 
	C94.375488,400.290131 94.646584,398.767151 95.884575,397.326355 
	C102.340225,391.087067 102.404495,382.902740 96.041122,377.383759 
	C89.836365,372.002289 81.407333,372.953339 76.369652,379.761200 
	C73.705719,383.361237 71.322639,387.169098 68.245041,391.230591 
M35.180984,362.711273 
	C39.692287,369.990021 39.385815,374.546906 34.079605,381.323547 
	C32.449978,383.404785 30.399931,385.475983 29.718102,387.884583 
	C29.114216,390.017822 29.311598,393.362488 30.638836,394.835876 
	C32.839005,397.278259 35.479221,395.754028 37.222008,393.229980 
	C42.550282,385.513184 47.871262,377.791351 53.777149,369.745087 
	C60.787903,359.483246 67.798660,349.221405 75.347229,338.523560 
	C77.477425,335.451050 80.100029,332.593231 81.565994,329.231110 
	C82.555870,326.960876 82.833145,323.467621 81.720894,321.474884 
	C80.790955,319.808777 77.016144,318.291138 75.136253,318.848755 
	C67.792488,321.027252 60.700977,324.056122 52.864330,326.906830 
	C41.032242,334.430145 32.897358,344.746338 28.626932,358.235596 
	C30.984564,359.663269 32.938564,360.846527 35.180984,362.711273 
M59.034225,375.217285 
	C55.133648,380.605469 51.323990,386.062622 47.304890,391.360901 
	C43.841480,395.926605 41.153473,401.058929 35.438480,403.780579 
	C31.526743,405.643463 31.861374,411.221069 35.547794,413.212128 
	C39.473793,415.332581 42.434967,413.138367 44.560085,410.215057 
	C51.826073,400.219940 58.862705,390.058075 66.547577,379.612000 
	C67.824265,377.872040 69.161728,376.173096 70.367554,374.385345 
	C77.037804,364.496246 89.553383,363.132324 97.426384,368.194977 
	C109.234619,375.788116 112.193993,386.907043 105.750854,397.718842 
	C103.889687,400.841980 101.845688,403.856140 99.321754,407.273743 
	C95.210854,413.088501 90.881081,418.767792 87.140259,424.811615 
	C86.183830,426.356842 86.437599,429.410767 87.359314,431.106110 
	C88.033806,432.346741 90.892723,433.286621 92.448524,432.928711 
	C94.249519,432.514343 96.977859,430.616821 97.070885,429.215057 
	C97.561485,421.822601 102.403450,416.747375 106.387726,410.527405 
	C114.667542,398.516846 122.947357,386.506256 131.787399,374.090363 
	C133.226212,371.671997 134.866928,369.349579 136.069397,366.818909 
	C141.695633,354.977814 139.082199,344.714935 128.343979,337.199890 
	C123.050667,333.495331 117.525024,330.098785 111.945656,326.834412 
	C107.290321,324.110718 102.403481,321.782684 97.393059,319.161102 
	C92.022820,327.181335 87.052261,334.604706 81.563568,342.450409 
	C74.222908,353.243866 66.882256,364.037323 59.034225,375.217285 
M309.912964,389.508850 
	C309.912964,384.757935 309.912964,380.007019 309.912964,375.383667 
	C324.405182,373.424591 326.722931,375.390900 326.722748,388.892761 
	C326.722656,394.979706 326.722748,401.066681 326.722748,406.998688 
	C331.219147,406.998688 334.991119,406.998688 339.185638,406.998688 
	C339.185638,396.342590 339.185638,385.947662 339.185638,375.497681 
	C340.746613,375.263550 341.885223,375.035461 343.035095,374.929260 
	C353.445007,373.967896 356.006622,376.257263 356.023651,386.529694 
	C356.034882,393.314545 356.025757,400.099396 356.025757,406.950195 
	C360.367523,406.950195 364.276184,406.950195 368.348846,406.950195 
	C368.348846,396.995331 368.592499,387.350098 368.271484,377.723663 
	C368.016205,370.067169 363.767242,364.859436 356.189850,364.130249 
	C349.513092,363.487701 342.671204,364.550293 335.903015,364.876373 
	C334.287903,364.954163 332.500610,365.610199 331.090454,365.128296 
	C320.686493,361.573059 310.321198,363.809204 299.969421,365.174011 
	C298.970581,365.305664 297.403870,366.923645 297.391388,367.868744 
	C297.220093,380.821198 297.275909,393.776611 297.275909,406.863281 
	C301.681549,406.863281 305.696686,406.863281 309.912964,406.863281 
	C309.912964,401.140503 309.912964,395.822327 309.912964,389.508850 
M436.088776,366.494049 
	C430.917969,369.697876 428.313812,374.557373 427.264984,380.362061 
	C424.814484,393.924377 431.179626,406.337708 442.573547,407.596802 
	C452.317871,408.673584 462.305908,407.544800 472.204315,407.391235 
	C472.204315,385.597382 472.204315,365.044495 472.204315,344.485229 
	C468.013367,344.485229 464.129852,344.485229 459.935272,344.485229 
	C459.935272,351.151123 459.935272,357.439117 459.935272,362.401520 
	C451.836761,363.692352 444.278046,364.897125 436.088776,366.494049 
M380.706909,402.782593 
	C387.674591,409.428375 395.607452,410.118927 404.233826,406.616913 
	C405.268585,406.196838 406.416229,405.450348 407.395264,405.602661 
	C411.519958,406.244202 415.600494,407.169220 420.049683,408.061188 
	C420.049683,393.051453 420.049683,379.322784 420.049683,365.042175 
	C411.756256,364.447723 403.662415,363.524902 395.554993,363.384674 
	C387.745941,363.249573 380.953613,366.213989 377.541718,373.654388 
	C373.016968,383.521606 373.150696,393.300507 380.706909,402.782593 
M289.767456,392.205963 
	C291.656281,379.703033 288.352264,370.960175 279.889099,366.066559 
	C271.233948,361.061920 258.036957,361.825195 250.569565,367.762299 
	C243.085022,373.713043 240.325699,384.252167 243.684311,394.060303 
	C246.832123,403.252838 255.348892,408.860931 266.281250,408.939880 
	C277.911774,409.023895 285.796753,403.605682 289.767456,392.205963 
M232.133942,407.269043 
	C233.397827,407.181213 234.661713,407.093384 236.122223,406.991882 
	C236.122223,397.174225 236.311081,387.699219 236.060532,378.235840 
	C235.871262,371.087463 230.899765,364.677429 223.571075,364.153351 
	C213.449890,363.429565 203.214020,364.309692 193.191666,364.499756 
	C193.191666,379.697418 193.191666,393.405853 193.191666,407.028900 
	C197.343826,407.028900 201.119598,407.028900 205.349884,407.028900 
	C205.349884,396.388000 205.349884,385.978424 205.349884,375.232574 
	C207.422638,375.088989 209.055939,374.956543 210.691528,374.865631 
	C221.416489,374.269623 223.767258,376.481567 223.770569,387.159698 
	C223.772629,393.758179 223.770950,400.356659 223.770950,407.268860 
	C226.661865,407.268860 228.971069,407.268860 232.133942,407.269043 
M645.517944,344.082916 
	C642.153992,343.481476 641.323181,345.016846 641.347534,348.220520 
	C641.480225,365.678406 641.411133,383.137848 641.411560,400.596741 
	C641.411621,402.541138 641.411621,404.485535 641.411621,407.223358 
	C650.223389,407.573273 658.509521,408.423859 666.748962,408.097198 
	C676.992981,407.691040 683.818909,399.479340 684.410339,388.124725 
	C685.067810,375.501740 679.392273,366.634186 668.689819,365.109741 
	C662.596252,364.241821 656.277832,364.952820 649.737244,364.952820 
	C649.737244,359.118042 649.643188,353.317169 649.780579,347.521759 
	C649.840881,344.981812 649.073975,343.714294 645.517944,344.082916 
M586.778931,391.688629 
	C590.309814,407.602875 602.507141,412.403687 620.310486,404.886475 
	C620.248657,405.379059 620.186768,405.871613 620.124939,406.364197 
	C623.059875,406.742126 625.994873,407.120026 629.026855,407.510437 
	C629.026855,393.276245 629.026855,379.894379 629.026855,366.151337 
	C622.754639,365.565277 616.816772,364.811676 610.855713,364.491089 
	C593.512512,363.558350 584.518494,373.423828 586.778931,391.688629 
M539.978882,367.486603 
	C539.376953,366.549805 538.955322,365.013641 538.144897,364.769806 
	C530.847290,362.574371 523.421692,361.921234 516.032227,364.266510 
	C506.244385,367.372986 500.808533,375.235229 500.864624,385.859589 
	C500.920807,396.492188 506.410004,404.304474 516.189697,407.333496 
	C524.289612,409.842224 532.193665,408.662506 540.337830,405.831665 
	C539.761292,402.493103 539.238525,399.465973 538.738403,396.569794 
	C533.741333,397.048492 529.286926,397.944977 524.866455,397.800873 
	C515.672913,397.501129 510.461395,388.534119 514.331970,380.261597 
	C516.578125,375.460907 521.747742,372.798676 528.134827,373.382660 
	C531.557556,373.695587 534.950806,374.331696 538.541016,374.848419 
	C539.029480,372.419525 539.450928,370.323853 539.978882,367.486603 
M713.141418,391.025024 
	C716.033875,391.969116 719.784485,393.081482 718.613892,396.680969 
	C717.921814,398.809021 714.508972,400.560455 711.961365,401.422638 
	C709.760620,402.167419 707.000305,401.707458 704.582520,401.262787 
	C700.411560,400.495667 696.314453,399.327026 692.042542,398.292053 
	C691.481628,400.565796 690.977783,402.608307 690.417419,404.879822 
	C693.076172,405.728455 695.250977,406.545105 697.488770,407.114380 
	C704.696716,408.947937 711.946350,409.718048 719.071960,406.848694 
	C724.128174,404.812653 726.874512,400.419769 726.806580,395.127441 
	C726.735779,389.616638 723.564514,386.606812 718.650452,385.137543 
	C714.989685,384.042969 711.235046,383.265533 707.561218,382.210876 
	C704.171936,381.237854 699.427917,381.122711 700.212585,375.943695 
	C700.975891,370.905426 705.586914,371.365356 709.377014,371.192047 
	C710.527954,371.139435 711.708130,371.307831 712.848389,371.518188 
	C716.391968,372.171936 719.922791,372.894379 723.621155,373.622162 
	C724.292786,371.453583 724.867188,369.598785 725.569763,367.330261 
	C716.751404,364.631531 708.367065,363.060181 699.792603,366.023132 
	C694.524414,367.843536 691.794312,372.069000 691.782776,377.459808 
	C691.770996,382.975006 694.945801,386.085693 699.769104,387.634491 
	C703.875427,388.953064 708.131531,389.805511 713.141418,391.025024 
M576.911133,368.500000 
	C576.911133,360.543182 576.911133,352.586334 576.911133,344.369934 
	C574.016113,344.369934 571.597412,344.369934 568.945374,344.369934 
	C568.945374,365.278198 568.945374,386.033936 568.945374,406.872620 
	C571.689331,406.872620 574.212708,406.872620 576.911133,406.872620 
	C576.911133,394.150818 576.911133,381.825409 576.911133,368.500000 
M494.586426,405.788483 
	C494.586426,392.226990 494.586426,378.665466 494.586426,364.988312 
	C490.129761,364.988312 486.231995,364.988312 482.352661,364.988312 
	C482.352661,379.172638 482.352661,393.045380 482.352661,407.546600 
	C486.577515,407.219788 490.470886,406.918610 494.586426,405.788483 
M480.304749,350.637207 
	C481.286072,357.002747 485.628845,360.385254 490.710480,358.559387 
	C494.566132,357.173950 496.626587,354.395172 496.151978,350.139648 
	C495.702515,346.110107 493.163696,343.947571 489.392975,343.248108 
	C485.306580,342.490021 482.152405,344.920471 480.304749,350.637207 
M30.609283,369.721130 
	C29.635883,368.627258 28.662485,367.533417 27.689085,366.439545 
	C27.310865,366.603760 26.932646,366.767944 26.554426,366.932159 
	C26.377916,370.670380 26.201408,374.408600 25.984406,379.004425 
	C30.453901,376.650146 31.580814,373.958344 30.609283,369.721130 
z"/>
<path fill="currentColor" opacity="1.000000" stroke="none" 
	d="
M309.912964,390.006500 
	C309.912964,395.822327 309.912964,401.140503 309.912964,406.863281 
	C305.696686,406.863281 301.681549,406.863281 297.275909,406.863281 
	C297.275909,393.776611 297.220093,380.821198 297.391388,367.868744 
	C297.403870,366.923645 298.970581,365.305664 299.969421,365.174011 
	C310.321198,363.809204 320.686493,361.573059 331.090454,365.128296 
	C332.500610,365.610199 334.287903,364.954163 335.903015,364.876373 
	C342.671204,364.550293 349.513092,363.487701 356.189850,364.130249 
	C363.767242,364.859436 368.016205,370.067169 368.271484,377.723663 
	C368.592499,387.350098 368.348846,396.995331 368.348846,406.950195 
	C364.276184,406.950195 360.367523,406.950195 356.025757,406.950195 
	C356.025757,400.099396 356.034882,393.314545 356.023651,386.529694 
	C356.006622,376.257263 353.445007,373.967896 343.035095,374.929260 
	C341.885223,375.035461 340.746613,375.263550 339.185638,375.497681 
	C339.185638,385.947662 339.185638,396.342590 339.185638,406.998688 
	C334.991119,406.998688 331.219147,406.998688 326.722748,406.998688 
	C326.722748,401.066681 326.722656,394.979706 326.722748,388.892761 
	C326.722931,375.390900 324.405182,373.424591 309.912964,375.383667 
	C309.912964,380.007019 309.912964,384.757935 309.912964,390.006500 
z"/>
<path fill="currentColor" opacity="1.000000" stroke="none" 
	d="
M436.404053,366.297974 
	C444.278046,364.897125 451.836761,363.692352 459.935272,362.401520 
	C459.935272,357.439117 459.935272,351.151123 459.935272,344.485229 
	C464.129852,344.485229 468.013367,344.485229 472.204315,344.485229 
	C472.204315,365.044495 472.204315,385.597382 472.204315,407.391235 
	C462.305908,407.544800 452.317871,408.673584 442.573547,407.596802 
	C431.179626,406.337708 424.814484,393.924377 427.264984,380.362061 
	C428.313812,374.557373 430.917969,369.697876 436.404053,366.297974 
M458.063354,397.745605 
	C458.708282,396.957458 459.895355,396.181213 459.912964,395.379272 
	C460.062164,388.582062 459.998169,381.780212 459.998169,373.986267 
	C455.532471,373.986267 451.407593,373.645782 447.364563,374.075439 
	C442.677521,374.573517 440.090179,377.745636 439.207672,382.302979 
	C437.236298,392.483551 442.396637,398.552643 452.650970,398.117004 
	C454.148041,398.053436 455.642517,397.929901 458.063354,397.745605 
z"/>
<path fill="currentColor" opacity="1.000000" stroke="none" 
	d="
M99.885498,406.920258 
	C101.845688,403.856140 103.889687,400.841980 105.750854,397.718842 
	C112.193993,386.907043 109.234619,375.788116 97.426384,368.194977 
	C89.553383,363.132324 77.037804,364.496246 70.367554,374.385345 
	C69.161728,376.173096 67.824265,377.872040 66.254730,379.414368 
	C63.821789,377.754761 61.681690,376.292786 59.541595,374.830780 
	C66.882256,364.037323 74.222908,353.243866 82.168083,342.275818 
	C84.320091,343.041504 85.836243,344.038635 87.420517,344.912201 
	C94.183510,348.641235 100.966652,352.333740 107.815704,356.434814 
	C108.936157,366.639099 116.077507,371.733032 124.584778,368.597961 
	C127.061455,370.656982 129.144318,372.576324 131.227173,374.495697 
	C122.947357,386.506256 114.667542,398.516846 105.832924,410.577362 
	C103.480583,409.391632 101.683044,408.155945 99.885498,406.920258 
z"/>
<path fill="currentColor" opacity="1.000000" stroke="none" 
	d="
M380.468231,402.515686 
	C373.150696,393.300507 373.016968,383.521606 377.541718,373.654388 
	C380.953613,366.213989 387.745941,363.249573 395.554993,363.384674 
	C403.662415,363.524902 411.756256,364.447723 420.049683,365.042175 
	C420.049683,379.322784 420.049683,393.051453 420.049683,408.061188 
	C415.600494,407.169220 411.519958,406.244202 407.395264,405.602661 
	C406.416229,405.450348 405.268585,406.196838 404.233826,406.616913 
	C395.607452,410.118927 387.674591,409.428375 380.468231,402.515686 
M389.150604,394.177582 
	C390.271393,395.150269 391.263611,396.357605 392.535522,397.054474 
	C397.692413,399.879913 407.532104,397.006195 407.820831,392.457092 
	C408.196716,386.535309 407.912750,380.571625 407.912750,373.758148 
	C403.801025,373.758148 400.179413,373.573914 396.583771,373.800659 
	C390.984253,374.153809 387.464661,377.251862 387.169708,382.876038 
	C386.985870,386.382172 388.167847,389.959930 389.150604,394.177582 
z"/>
<path fill="currentColor" opacity="1.000000" stroke="none" 
	d="
M289.644226,392.588257 
	C285.796753,403.605682 277.911774,409.023895 266.281250,408.939880 
	C255.348892,408.860931 246.832123,403.252838 243.684311,394.060303 
	C240.325699,384.252167 243.085022,373.713043 250.569565,367.762299 
	C258.036957,361.825195 271.233948,361.061920 279.889099,366.066559 
	C288.352264,370.960175 291.656281,379.703033 289.644226,392.588257 
M266.495605,373.954742 
	C259.458801,374.694397 255.792648,377.724243 254.963425,383.485321 
	C254.066803,389.714569 256.751862,394.975281 261.949249,396.933746 
	C266.531738,398.660522 270.946686,398.085632 274.530273,394.776917 
	C278.295563,391.300385 278.983704,386.643311 277.641479,381.879395 
	C276.216339,376.820984 272.489441,374.348785 266.495605,373.954742 
z"/>
<path fill="currentColor" opacity="1.000000" stroke="none" 
	d="
M231.707123,407.268951 
	C228.971069,407.268860 226.661865,407.268860 223.770950,407.268860 
	C223.770950,400.356659 223.772629,393.758179 223.770569,387.159698 
	C223.767258,376.481567 221.416489,374.269623 210.691528,374.865631 
	C209.055939,374.956543 207.422638,375.088989 205.349884,375.232574 
	C205.349884,385.978424 205.349884,396.388000 205.349884,407.028900 
	C201.119598,407.028900 197.343826,407.028900 193.191666,407.028900 
	C193.191666,393.405853 193.191666,379.697418 193.191666,364.499756 
	C203.214020,364.309692 213.449890,363.429565 223.571075,364.153351 
	C230.899765,364.677429 235.871262,371.087463 236.060532,378.235840 
	C236.311081,387.699219 236.122223,397.174225 236.122223,406.991882 
	C234.661713,407.093384 233.397827,407.181213 231.707123,407.268951 
z"/>
<path fill="currentColor" opacity="1.000000" stroke="none" 
	d="
M645.959534,344.083130 
	C649.073975,343.714294 649.840881,344.981812 649.780579,347.521759 
	C649.643188,353.317169 649.737244,359.118042 649.737244,364.952820 
	C656.277832,364.952820 662.596252,364.241821 668.689819,365.109741 
	C679.392273,366.634186 685.067810,375.501740 684.410339,388.124725 
	C683.818909,399.479340 676.992981,407.691040 666.748962,408.097198 
	C658.509521,408.423859 650.223389,407.573273 641.411621,407.223358 
	C641.411621,404.485535 641.411621,402.541138 641.411560,400.596741 
	C641.411133,383.137848 641.480225,365.678406 641.347534,348.220520 
	C641.323181,345.016846 642.153992,343.481476 645.959534,344.083130 
M649.708984,378.636139 
	C649.708984,385.879822 649.708984,393.123505 649.708984,400.770294 
	C654.654419,401.074890 658.940552,401.617493 663.214050,401.531830 
	C668.613708,401.423645 672.785583,398.925415 674.963196,393.762085 
	C680.328125,381.041138 672.948486,370.529266 659.285095,371.400299 
	C657.793945,371.495361 656.311401,371.858032 654.824463,371.860748 
	C650.860229,371.868042 648.976929,373.587616 649.708984,378.636139 
z"/>
<path fill="currentColor" opacity="1.000000" stroke="none" 
	d="
M107.742432,356.039612 
	C100.966652,352.333740 94.183510,348.641235 87.420517,344.912201 
	C85.836243,344.038635 84.320091,343.041504 82.427147,342.064636 
	C87.052261,334.604706 92.022820,327.181335 97.393059,319.161102 
	C102.403481,321.782684 107.290321,324.110718 111.945656,326.834412 
	C117.525024,330.098785 123.050667,333.495331 128.343979,337.199890 
	C139.082199,344.714935 141.695633,354.977814 136.069397,366.818909 
	C134.866928,369.349579 133.226212,371.671997 131.507294,374.293030 
	C129.144318,372.576324 127.061455,370.656982 124.850052,368.368835 
	C129.333618,365.362885 131.785858,361.532074 131.278091,356.083435 
	C130.870102,351.705536 128.524063,348.571320 124.658943,346.761292 
	C117.451569,343.386047 110.879135,347.067322 107.742432,356.039612 
z"/>
<path fill="currentColor" opacity="1.000000" stroke="none" 
	d="
M74.809410,338.959564 
	C67.798660,349.221405 60.787903,359.483246 53.101929,369.886536 
	C50.964966,369.361145 49.503235,368.694305 48.041481,368.027527 
	C43.658524,366.028259 39.275543,364.029022 34.892570,362.029785 
	C32.938564,360.846527 30.984564,359.663269 28.626932,358.235596 
	C32.897358,344.746338 41.032242,334.430145 53.573692,326.920227 
	C55.249058,327.503784 56.213284,328.076996 57.181332,328.643677 
	C63.056866,332.083130 68.933296,335.521088 74.809410,338.959564 
z"/>
<path fill="currentColor" opacity="1.000000" stroke="none" 
	d="
M586.709717,391.266846 
	C584.518494,373.423828 593.512512,363.558350 610.855713,364.491089 
	C616.816772,364.811676 622.754639,365.565277 629.026855,366.151337 
	C629.026855,379.894379 629.026855,393.276245 629.026855,407.510437 
	C625.994873,407.120026 623.059875,406.742126 620.124939,406.364197 
	C620.186768,405.871613 620.248657,405.379059 620.310486,404.886475 
	C602.507141,412.403687 590.309814,407.602875 586.709717,391.266846 
M599.640381,374.009033 
	C593.529175,379.978912 592.543762,390.415253 597.498169,396.696472 
	C602.148926,402.592621 611.150146,403.338379 618.726196,398.279999 
	C619.786926,397.571777 620.938660,396.067383 620.970337,394.902161 
	C621.172974,387.471710 621.073547,380.032990 621.073547,372.248596 
	C613.738953,371.835602 606.852600,369.625793 599.640381,374.009033 
z"/>
<path fill="currentColor" opacity="1.000000" stroke="none" 
	d="
M539.925659,367.857391 
	C539.450928,370.323853 539.029480,372.419525 538.541016,374.848419 
	C534.950806,374.331696 531.557556,373.695587 528.134827,373.382660 
	C521.747742,372.798676 516.578125,375.460907 514.331970,380.261597 
	C510.461395,388.534119 515.672913,397.501129 524.866455,397.800873 
	C529.286926,397.944977 533.741333,397.048492 538.738403,396.569794 
	C539.238525,399.465973 539.761292,402.493103 540.337830,405.831665 
	C532.193665,408.662506 524.289612,409.842224 516.189697,407.333496 
	C506.410004,404.304474 500.920807,396.492188 500.864624,385.859589 
	C500.808533,375.235229 506.244385,367.372986 516.032227,364.266510 
	C523.421692,361.921234 530.847290,362.574371 538.144897,364.769806 
	C538.955322,365.013641 539.376953,366.549805 539.925659,367.857391 
z"/>
<path fill="currentColor" opacity="1.000000" stroke="none" 
	d="
M712.731384,390.944580 
	C708.131531,389.805511 703.875427,388.953064 699.769104,387.634491 
	C694.945801,386.085693 691.770996,382.975006 691.782776,377.459808 
	C691.794312,372.069000 694.524414,367.843536 699.792603,366.023132 
	C708.367065,363.060181 716.751404,364.631531 725.569763,367.330261 
	C724.867188,369.598785 724.292786,371.453583 723.621155,373.622162 
	C719.922791,372.894379 716.391968,372.171936 712.848389,371.518188 
	C711.708130,371.307831 710.527954,371.139435 709.377014,371.192047 
	C705.586914,371.365356 700.975891,370.905426 700.212585,375.943695 
	C699.427917,381.122711 704.171936,381.237854 707.561218,382.210876 
	C711.235046,383.265533 714.989685,384.042969 718.650452,385.137543 
	C723.564514,386.606812 726.735779,389.616638 726.806580,395.127441 
	C726.874512,400.419769 724.128174,404.812653 719.071960,406.848694 
	C711.946350,409.718048 704.696716,408.947937 697.488770,407.114380 
	C695.250977,406.545105 693.076172,405.728455 690.417419,404.879822 
	C690.977783,402.608307 691.481628,400.565796 692.042542,398.292053 
	C696.314453,399.327026 700.411560,400.495667 704.582520,401.262787 
	C707.000305,401.707458 709.760620,402.167419 711.961365,401.422638 
	C714.508972,400.560455 717.921814,398.809021 718.613892,396.680969 
	C719.784485,393.081482 716.033875,391.969116 712.731384,390.944580 
z"/>
<path fill="currentColor" opacity="1.000000" stroke="none" 
	d="
M576.911133,369.000000 
	C576.911133,381.825409 576.911133,394.150818 576.911133,406.872620 
	C574.212708,406.872620 571.689331,406.872620 568.945374,406.872620 
	C568.945374,386.033936 568.945374,365.278198 568.945374,344.369934 
	C571.597412,344.369934 574.016113,344.369934 576.911133,344.369934 
	C576.911133,352.586334 576.911133,360.543182 576.911133,369.000000 
z"/>
<path fill="currentColor" opacity="1.000000" stroke="none" 
	d="
M494.475342,406.202942 
	C490.470886,406.918610 486.577515,407.219788 482.352661,407.546600 
	C482.352661,393.045380 482.352661,379.172638 482.352661,364.988312 
	C486.231995,364.988312 490.129761,364.988312 494.586426,364.988312 
	C494.586426,378.665466 494.586426,392.226990 494.475342,406.202942 
z"/>
<path fill="currentColor" opacity="1.000000" stroke="none" 
	d="
M59.287910,375.024048 
	C61.681690,376.292786 63.821789,377.754761 65.974358,379.588287 
	C58.862705,390.058075 51.826073,400.219940 44.560085,410.215057 
	C42.434967,413.138367 39.473793,415.332581 35.547794,413.212128 
	C31.861374,411.221069 31.526743,405.643463 35.438480,403.780579 
	C41.153473,401.058929 43.841480,395.926605 47.304890,391.360901 
	C51.323990,386.062622 55.133648,380.605469 59.287910,375.024048 
z"/>
<path fill="currentColor" opacity="1.000000" stroke="none" 
	d="
M95.163849,397.415405 
	C94.646584,398.767151 94.375488,400.290131 93.573097,401.443512 
	C87.204643,410.597748 80.836205,419.756439 74.204788,428.719208 
	C72.993668,430.356110 70.611893,432.016907 68.722534,432.073853 
	C64.961060,432.187164 63.781643,428.008728 66.483063,424.154205 
	C73.716599,413.833008 81.095856,403.613953 89.076515,393.184021 
	C91.545158,394.480988 93.354500,395.948181 95.163849,397.415405 
z"/>
<path fill="currentColor" opacity="1.000000" stroke="none" 
	d="
M95.524216,397.370880 
	C93.354500,395.948181 91.545158,394.480988 89.353577,393.003113 
	C89.635628,391.860870 90.832542,390.734589 90.843811,389.596527 
	C90.862358,387.723053 90.692230,385.024109 89.523300,384.196838 
	C88.381531,383.388824 85.168869,383.797577 84.129395,384.882874 
	C81.293159,387.844208 79.124046,391.444519 76.206238,394.674377 
	C73.418831,393.332428 71.115814,392.107788 68.812782,390.883148 
	C71.322639,387.169098 73.705719,383.361237 76.369652,379.761200 
	C81.407333,372.953339 89.836365,372.002289 96.041122,377.383759 
	C102.404495,382.902740 102.340225,391.087067 95.524216,397.370880 
z"/>
<path fill="currentColor" opacity="1.000000" stroke="none" 
	d="
M68.528915,391.056885 
	C71.115814,392.107788 73.418831,393.332428 75.919724,394.847412 
	C68.849907,405.554138 61.601250,415.983948 54.300465,426.377106 
	C52.584591,428.819794 50.221054,430.135132 47.506443,428.161682 
	C44.594154,426.044525 45.238716,423.370789 47.114193,420.758545 
	C54.173023,410.926819 61.203777,401.074921 68.528915,391.056885 
z"/>
<path fill="currentColor" opacity="1.000000" stroke="none" 
	d="
M115.988495,409.986176 
	C122.462189,400.526917 128.883896,391.030975 135.490921,381.665771 
	C136.143936,380.740143 137.930786,380.614410 139.191376,380.117432 
	C139.646057,381.567413 140.683441,383.112549 140.464569,384.452484 
	C138.444321,396.820557 132.978928,407.448578 123.366730,415.905212 
	C120.589409,413.791870 118.288956,411.889038 115.988495,409.986176 
z"/>
<path fill="currentColor" opacity="1.000000" stroke="none" 
	d="
M75.078323,338.741577 
	C68.933296,335.521088 63.056866,332.083130 57.181332,328.643677 
	C56.213284,328.076996 55.249058,327.503784 53.899372,326.851257 
	C60.700977,324.056122 67.792488,321.027252 75.136253,318.848755 
	C77.016144,318.291138 80.790955,319.808777 81.720894,321.474884 
	C82.833145,323.467621 82.555870,326.960876 81.565994,329.231110 
	C80.100029,332.593231 77.477425,335.451050 75.078323,338.741577 
z"/>
<path fill="currentColor" opacity="1.000000" stroke="none" 
	d="
M35.036781,362.370544 
	C39.275543,364.029022 43.658524,366.028259 48.041481,368.027527 
	C49.503235,368.694305 50.964966,369.361145 52.810894,370.049713 
	C47.871262,377.791351 42.550282,385.513184 37.222008,393.229980 
	C35.479221,395.754028 32.839005,397.278259 30.638836,394.835876 
	C29.311598,393.362488 29.114216,390.017822 29.718102,387.884583 
	C30.399931,385.475983 32.449978,383.404785 34.079605,381.323547 
	C39.385815,374.546906 39.692287,369.990021 35.036781,362.370544 
z"/>
<path fill="currentColor" opacity="1.000000" stroke="none" 
	d="
M99.603630,407.096985 
	C101.683044,408.155945 103.480583,409.391632 105.562904,410.773926 
	C102.403450,416.747375 97.561485,421.822601 97.070885,429.215057 
	C96.977859,430.616821 94.249519,432.514343 92.448524,432.928711 
	C90.892723,433.286621 88.033806,432.346741 87.359314,431.106110 
	C86.437599,429.410767 86.183830,426.356842 87.140259,424.811615 
	C90.881081,418.767792 95.210854,413.088501 99.603630,407.096985 
z"/>
<path fill="currentColor" opacity="1.000000" stroke="none" 
	d="
M480.349426,350.256653 
	C482.152405,344.920471 485.306580,342.490021 489.392975,343.248108 
	C493.163696,343.947571 495.702515,346.110107 496.151978,350.139648 
	C496.626587,354.395172 494.566132,357.173950 490.710480,358.559387 
	C485.628845,360.385254 481.286072,357.002747 480.349426,350.256653 
z"/>
<path fill="currentColor" opacity="1.000000" stroke="none" 
	d="
M115.710449,410.169647 
	C118.288956,411.889038 120.589409,413.791870 123.047150,416.023865 
	C119.597855,419.106689 116.099098,422.024994 112.313286,424.505096 
	C111.291977,425.174225 109.399887,424.514160 107.907486,424.464203 
	C108.065140,423.108734 107.806618,421.495819 108.456680,420.444946 
	C110.605179,416.971710 113.081749,413.701355 115.710449,410.169647 
z"/>
<path fill="currentColor" opacity="1.000000" stroke="none" 
	d="
M30.733868,370.035706 
	C31.580814,373.958344 30.453901,376.650146 25.984406,379.004425 
	C26.201408,374.408600 26.377916,370.670380 26.554426,366.932159 
	C26.932646,366.767944 27.310865,366.603760 27.689085,366.439545 
	C28.662485,367.533417 29.635883,368.627258 30.733868,370.035706 
z"/>
<path fill="currentColor" opacity="1.000000" stroke="none" 
	d="
M457.600769,397.789856 
	C455.642517,397.929901 454.148041,398.053436 452.650970,398.117004 
	C442.396637,398.552643 437.236298,392.483551 439.207672,382.302979 
	C440.090179,377.745636 442.677521,374.573517 447.364563,374.075439 
	C451.407593,373.645782 455.532471,373.986267 459.998169,373.986267 
	C459.998169,381.780212 460.062164,388.582062 459.912964,395.379272 
	C459.895355,396.181213 458.708282,396.957458 457.600769,397.789856 
z"/>
<path fill="currentColor" opacity="1.000000" stroke="none" 
	d="
M107.815704,356.434814 
	C110.879135,347.067322 117.451569,343.386047 124.658943,346.761292 
	C128.524063,348.571320 130.870102,351.705536 131.278091,356.083435 
	C131.785858,361.532074 129.333618,365.362885 124.456245,368.229156 
	C116.077507,371.733032 108.936157,366.639099 107.815704,356.434814 
M120.234230,353.617432 
	C116.610497,354.025574 114.984665,355.880646 116.809731,359.298309 
	C117.322395,360.258362 119.319092,360.933624 120.563805,360.835541 
	C121.572037,360.756073 123.370018,359.146973 123.248703,358.519958 
	C122.925484,356.849579 121.755676,355.343018 120.234230,353.617432 
z"/>
<path fill="currentColor" opacity="1.000000" stroke="none" 
	d="
M388.943726,393.841553 
	C388.167847,389.959930 386.985870,386.382172 387.169708,382.876038 
	C387.464661,377.251862 390.984253,374.153809 396.583771,373.800659 
	C400.179413,373.573914 403.801025,373.758148 407.912750,373.758148 
	C407.912750,380.571625 408.196716,386.535309 407.820831,392.457092 
	C407.532104,397.006195 397.692413,399.879913 392.535522,397.054474 
	C391.263611,396.357605 390.271393,395.150269 388.943726,393.841553 
z"/>
<path fill="currentColor" opacity="1.000000" stroke="none" 
	d="
M266.907532,373.958130 
	C272.489441,374.348785 276.216339,376.820984 277.641479,381.879395 
	C278.983704,386.643311 278.295563,391.300385 274.530273,394.776917 
	C270.946686,398.085632 266.531738,398.660522 261.949249,396.933746 
	C256.751862,394.975281 254.066803,389.714569 254.963425,383.485321 
	C255.792648,377.724243 259.458801,374.694397 266.907532,373.958130 
z"/>
<path fill="currentColor" opacity="1.000000" stroke="none" 
	d="
M649.708740,378.153625 
	C648.976929,373.587616 650.860229,371.868042 654.824463,371.860748 
	C656.311401,371.858032 657.793945,371.495361 659.285095,371.400299 
	C672.948486,370.529266 680.328125,381.041138 674.963196,393.762085 
	C672.785583,398.925415 668.613708,401.423645 663.214050,401.531830 
	C658.940552,401.617493 654.654419,401.074890 649.708984,400.770294 
	C649.708984,393.123505 649.708984,385.879822 649.708740,378.153625 
z"/>
<path fill="currentColor" opacity="1.000000" stroke="none" 
	d="
M599.944824,373.777130 
	C606.852600,369.625793 613.738953,371.835602 621.073547,372.248596 
	C621.073547,380.032990 621.172974,387.471710 620.970337,394.902161 
	C620.938660,396.067383 619.786926,397.571777 618.726196,398.279999 
	C611.150146,403.338379 602.148926,402.592621 597.498169,396.696472 
	C592.543762,390.415253 593.529175,379.978912 599.944824,373.777130 
z"/>
<path fill="currentColor" opacity="1.000000" stroke="none" 
	d="
M120.578346,353.694397 
	C121.755676,355.343018 122.925484,356.849579 123.248703,358.519958 
	C123.370018,359.146973 121.572037,360.756073 120.563805,360.835541 
	C119.319092,360.933624 117.322395,360.258362 116.809731,359.298309 
	C114.984665,355.880646 116.610497,354.025574 120.578346,353.694397 
z"/>
</svg>
