<svg width="396" height="158" viewBox="0 0 396 158" fill="none" xmlns="http://www.w3.org/2000/svg">
<path d="M31.5312 157.888C39.365 157.888 45.4362 151.598 45.4362 143.932V126.159C45.4362 126.159 45.632 121.834 42.8902 117.117L14.2967 67.5859V49.2223H31.1395V69.4672H45.4362V51.1878C45.4362 43.5223 39.365 37.2326 31.5312 37.2326H13.905C6.26706 37.2326 0 43.5223 0 51.1878V66.2101C0 66.2101 0 70.9273 2.74184 75.448L31.1395 124.979V145.898H14.2967V125.653H0V143.932C0 151.598 6.26706 157.888 13.905 157.888H31.5312ZM93.0267 134.245H72.8546C65.2166 134.245 58.9496 127.956 58.9496 120.29V51.1036C58.9496 43.4381 65.2166 37.1484 72.8546 37.1484H93.0267C100.665 37.1484 106.932 43.4381 106.932 51.1036V80.1934C106.932 88.0554 100.665 94.3451 93.0267 94.3451H72.8546V122.059H92.8309V107.907H106.932V120.29C106.932 127.956 100.665 134.245 93.0267 134.245ZM92.8309 81.9623V49.5312H72.8546V81.9623H92.8309ZM135.917 134.245V49.5312H157.264V37.1484H148.647C141.401 37.1484 137.68 40.8829 135.917 44.6174V37.1484H121.816V134.245H135.917ZM199.567 134.245H179.59C171.757 134.245 165.49 127.956 165.49 120.29V51.3002C165.49 43.4381 171.757 37.1484 179.59 37.1484H199.567C207.401 37.1484 213.472 43.4381 213.472 51.3002V120.29C213.472 127.956 207.401 134.245 199.567 134.245ZM199.567 122.059V49.5312H179.59V122.059H199.567ZM277.122 134.245L272.813 92.183C271.834 82.9451 267.917 78.2278 261.062 77.4416L278.297 37.1484H264.392L247.549 77.2451H242.653V0H228.748V134.245H242.653V89.0382H258.908L263.217 134.245H277.122ZM322.558 134.245H302.386C294.748 134.245 288.481 127.956 288.481 120.29V51.1036C288.481 43.4381 294.748 37.1484 302.386 37.1484H322.558C330.196 37.1484 336.463 43.4381 336.463 51.1036V80.1934C336.463 88.0554 330.196 94.3451 322.558 94.3451H302.386V122.059H322.362V107.907H336.463V120.29C336.463 127.956 330.196 134.245 322.558 134.245ZM322.362 81.9623V49.5312H302.386V81.9623H322.362ZM365.448 134.245V0H351.347V134.245H365.448ZM396 134.245H381.899V0H396V134.245ZM58.7537 158V146.01H396V158H58.7537Z" fill="white"/>
</svg>
